#!OML:ASF H:\MichaelJackson\Top Level 1\Subject 1\Session 1\male.ASF
:FULLY-SPECIFIED
:DEGREES
1
root -15.5178 17.2537 -18.3653 9.41116 1.93196 -2.18391
lowerback -6.36285 -0.0462288 -0.818786
upperback -0.630787 -0.0613105 1.86241
thorax 2.9203 -0.0500853 2.37662
lowerneck -5.17281 -2.19807 -1.39443
upperneck -13.1055 -2.65039 2.81688
head -3.26348 -1.33876 1.18869
rclavicle -2.55935e-015 1.63003e-014
rhumerus -40.1127 15.7888 -98.0692
rradius 38.7516
rwrist 16.5592
rhand -2.98814 -13.2581
rfingers 7.12502
rthumb 22.7253 -41.9398
lclavicle -2.55935e-015 1.63003e-014
lhumerus -45.9718 -29.8486 112.752
lradius 51.4824
lwrist 4.22859
lhand 27.1235 14.1003
lfingers 7.12502
lthumb 51.1033 34.7239
rfemur -18.1047 3.4037 20.8407
rtibia 29.7929
rfoot -16.9114 -13.3108
rtoes 11.747
lfemur -20.69 2.92594 -19.8657
ltibia 32.6498
lfoot -21.5942 -1.71179
ltoes 16.5935
2
root -15.5175 17.2524 -18.3692 9.40891 1.86843 -2.24496
lowerback -6.33857 0.0131322 -0.729781
upperback -0.644314 0.0127951 1.82931
thorax 2.88923 -0.0115575 2.29849
lowerneck -5.03245 -2.2355 -1.24558
upperneck -13.2227 -2.71142 2.73047
head -3.33112 -1.37421 1.13994
rclavicle 3.39176e-015 1.41137e-014
rhumerus -40.1114 15.6026 -98.061
rradius 38.7049
rwrist 16.4067
rhand -3.29895 -13.2355
rfingers 7.12502
rthumb 22.427 -41.9535
lclavicle 3.39176e-015 1.41137e-014
lhumerus -46.0272 -30.015 112.772
lradius 51.3385
lwrist 3.2664
lhand 27.012 13.2445
lfingers 7.12502
lthumb 51.0017 33.925
rfemur -18.1353 3.32343 20.9037
rtibia 29.8018
rfoot -16.9411 -13.1089
rtoes 11.8729
lfemur -20.7086 2.94767 -19.8018
ltibia 32.6661
lfoot -21.5888 -1.69314
ltoes 16.7626
3
root -15.5201 17.2523 -18.3718 9.36396 1.97587 -2.17806
lowerback -6.33416 -0.000645884 -0.821281
upperback -0.622784 0.00179825 1.79086
thorax 2.90947 -0.0182431 2.30939
lowerneck -4.94249 -2.26463 -1.13848
upperneck -13.273 -2.75832 2.66947
head -3.36608 -1.40105 1.10452
rclavicle -4.44781e-015 -1.88845e-014
rhumerus -40.0954 15.4212 -98.0433
rradius 38.6617
rwrist 16.2952
rhand -3.53788 -13.3245
rfingers 7.12502
rthumb 22.1977 -42.07
lclavicle -4.44781e-015 -1.88845e-014
lhumerus -46.0009 -30.116 112.736
lradius 51.2244
lwrist 2.71997
lhand 27.0206 12.7989
lfingers 7.12502
lthumb 51.0095 33.475
rfemur -18.0851 3.37195 20.8579
rtibia 29.8263
rfoot -16.9943 -13.2818
rtoes 11.6504
lfemur -20.6697 3.03328 -19.8559
ltibia 32.6442
lfoot -21.5869 -1.90311
ltoes 16.7621
4
root -15.5181 17.2523 -18.3778 9.45931 1.83496 -2.19332
lowerback -6.35198 0.0604358 -0.75907
upperback -0.671971 0.0809134 1.74082
thorax 2.86513 0.0229008 2.2293
lowerneck -4.90649 -2.28062 -1.00572
upperneck -13.2862 -2.78873 2.60239
head -3.37909 -1.42041 1.06091
rclavicle -7.29291e-015 -5.36719e-015
rhumerus -40.0808 15.2933 -98.0656
rradius 38.6031
rwrist 16.1187
rhand -3.70475 -13.4937
rfingers 7.12502
rthumb 22.0375 -42.2581
lclavicle -7.29291e-015 -5.36719e-015
lhumerus -45.9973 -30.1037 112.654
lradius 51.1104
lwrist 2.45353
lhand 27.2885 12.561
lfingers 7.12502
lthumb 51.2535 33.0999
rfemur -18.2472 3.28142 20.8336
rtibia 29.852
rfoot -17.094 -12.9416
rtoes 11.9305
lfemur -20.7782 3.06984 -19.8702
ltibia 32.6208
lfoot -21.5726 -1.84394
ltoes 16.9889
5
root -15.5187 17.2562 -18.3799 9.43646 1.80836 -2.21329
lowerback -6.28847 0.0763162 -0.719622
upperback -0.689353 0.100796 1.70123
thorax 2.81089 0.0340099 2.16739
lowerneck -4.83387 -2.29432 -0.950089
upperneck -13.3427 -2.8062 2.61715
head -3.41235 -1.43267 1.05869
rclavicle 6.83322e-016 -1.49089e-014
rhumerus -40.0209 15.0629 -98.0861
rradius 38.4368
rwrist 16.2146
rhand -6.43284 -12.8764
rfingers 7.12502
rthumb 19.4162 -41.927
lclavicle 6.83322e-016 -1.49089e-014
lhumerus -46.0309 -29.9917 112.529
lradius 51.1067
lwrist 3.04591
lhand 27.4662 13.0854
lfingers 7.12502
lthumb 51.4152 33.5321
rfemur -18.2868 3.84059 20.8567
rtibia 29.8954
rfoot -16.7788 -13.7982
rtoes 10.4738
lfemur -20.7351 3.10363 -19.8406
ltibia 32.5721
lfoot -21.5191 -1.85032
ltoes 17.0326
6
root -15.5187 17.2575 -18.3832 9.44543 1.75285 -2.22099
lowerback -6.27155 0.109158 -0.691078
upperback -0.704582 0.144066 1.65825
thorax 2.78401 0.0564114 2.11039
lowerneck -4.76463 -2.31353 -0.860236
upperneck -13.3919 -2.83524 2.59463
head -3.44318 -1.45104 1.03834
rclavicle -7.8023e-015 -4.47266e-015
rhumerus -39.9713 14.8546 -98.0906
rradius 38.3213
rwrist 16.2214
rhand -7.55449 -12.7162
rfingers 7.12502
rthumb 18.3375 -41.8719
lclavicle -7.8023e-015 -4.47266e-015
lhumerus -46.0497 -29.9686 112.44
lradius 51.0524
lwrist 3.14558
lhand 27.509 13.103
lfingers 7.12502
lthumb 51.4541 33.5274
rfemur -18.3346 4.1939 20.8457
rtibia 29.9244
rfoot -16.7274 -14.1619
rtoes 10.0226
lfemur -20.7351 3.13823 -19.836
ltibia 32.5329
lfoot -21.4903 -1.84793
ltoes 17.1418
7
root -15.5186 17.2587 -18.3865 9.45549 1.68542 -2.22958
lowerback -6.26085 0.144788 -0.660603
upperback -0.717526 0.190912 1.61411
thorax 2.76294 0.0805436 2.05145
lowerneck -4.70207 -2.33171 -0.777208
upperneck -13.4342 -2.8617 2.58258
head -3.47027 -1.46811 1.02233
rclavicle -4.5969e-015 -9.83984e-015
rhumerus -39.9071 14.6285 -98.0917
rradius 38.1917
rwrist 16.2719
rhand -8.57315 -12.5813
rfingers 7.12502
rthumb 17.3573 -41.8263
lclavicle -4.5969e-015 -9.83984e-015
lhumerus -46.0709 -29.9303 112.338
lradius 51.0142
lwrist 3.36819
lhand 27.4652 13.1532
lfingers 7.12502
lthumb 51.4143 33.6004
rfemur -18.3847 4.60198 20.8296
rtibia 29.9617
rfoot -16.6935 -14.5563
rtoes 9.61293
lfemur -20.7307 3.16664 -19.8313
ltibia 32.4862
lfoot -21.4557 -1.82443
ltoes 17.229
8
root -15.5184 17.2597 -18.3899 9.47118 1.60322 -2.24261
lowerback -6.2598 0.18585 -0.623609
upperback -0.729338 0.244538 1.56916
thorax 2.74833 0.108058 1.98866
lowerneck -4.64787 -2.34932 -0.697404
upperneck -13.4689 -2.88654 2.57793
head -3.49312 -1.48442 1.00902
rclavicle -6.8705e-015 1.98785e-015
rhumerus -39.8295 14.3837 -98.0875
rradius 38.0517
rwrist 16.3681
rhand -9.39909 -12.4896
rfingers 7.12502
rthumb 16.5622 -41.8028
lclavicle -6.8705e-015 1.98785e-015
lhumerus -46.1003 -29.8817 112.225
lradius 50.9916
lwrist 3.64779
lhand 27.318 13.1709
lfingers 7.12502
lthumb 51.2804 33.6945
rfemur -18.4305 5.00812 20.8139
rtibia 29.9785
rfoot -16.667 -14.9129
rtoes 9.29418
lfemur -20.7407 3.18512 -19.8231
ltibia 32.4613
lfoot -21.4341 -1.77478
ltoes 17.3122
9
root -15.5182 17.2605 -18.3933 9.48718 1.51727 -2.25682
lowerback -6.2549 0.227395 -0.583266
upperback -0.744888 0.298661 1.52264
thorax 2.72787 0.13591 1.92235
lowerneck -4.6031 -2.36535 -0.61852
upperneck -13.4874 -2.90896 2.57719
head -3.50857 -1.49953 0.996665
rclavicle 4.22417e-016 2.18663e-015
rhumerus -39.7531 14.1237 -98.0848
rradius 37.9077
rwrist 16.4998
rhand -9.99187 -12.4474
rfingers 7.12502
rthumb 15.9915 -41.8073
lclavicle 4.22417e-016 2.18663e-015
lhumerus -46.1427 -29.8266 112.106
lradius 50.9791
lwrist 3.95405
lhand 27.0919 13.1706
lfingers 7.12502
lthumb 51.0745 33.8104
rfemur -18.4697 5.37727 20.8003
rtibia 29.9864
rfoot -16.6534 -15.2129
rtoes 9.0693
lfemur -20.7537 3.19917 -19.8132
ltibia 32.4447
lfoot -21.4189 -1.71518
ltoes 17.3892
10
root -15.5179 17.2611 -18.3965 9.50829 1.42303 -2.26941
lowerback -6.2686 0.273961 -0.543401
upperback -0.75501 0.359463 1.47417
thorax 2.72335 0.166936 1.85505
lowerneck -4.56537 -2.3822 -0.536217
upperneck -13.5018 -2.93249 2.57599
head -3.52134 -1.51528 0.983399
rclavicle -2.57799e-015 6.85807e-015
rhumerus -39.668 13.8501 -98.0761
rradius 37.7682
rwrist 16.648
rhand -10.3543 -12.4587
rfingers 7.12502
rthumb 15.6424 -41.8463
lclavicle -2.57799e-015 6.85807e-015
lhumerus -46.1833 -29.778 111.979
lradius 50.9726
lwrist 4.24579
lhand 26.8241 13.1258
lfingers 7.12502
lthumb 50.8304 33.9014
rfemur -18.5098 5.68147 20.785
rtibia 29.9866
rfoot -16.6554 -15.4251
rtoes 8.93489
lfemur -20.7737 3.20826 -19.8065
ltibia 32.435
lfoot -21.4105 -1.64274
ltoes 17.4638
11
root -15.5176 17.2613 -18.3999 9.53577 1.32227 -2.28315
lowerback -6.27455 0.321947 -0.496543
upperback -0.775982 0.421877 1.42255
thorax 2.7035 0.198998 1.78058
lowerneck -4.53545 -2.39658 -0.449427
upperneck -13.4953 -2.95325 2.57239
head -3.5255 -1.52968 0.968031
rclavicle -9.4547e-015 -1.43125e-014
rhumerus -39.598 13.5709 -98.076
rradius 37.6346
rwrist 16.8055
rhand -10.4071 -12.5477
rfingers 7.12502
rthumb 15.5916 -41.9393
lclavicle -9.4547e-015 -1.43125e-014
lhumerus -46.2378 -29.7148 111.843
lradius 50.9694
lwrist 4.50999
lhand 26.526 13.021
lfingers 7.12502
lthumb 50.5584 33.9455
rfemur -18.5505 5.92652 20.7708
rtibia 29.9802
rfoot -16.6728 -15.5485
rtoes 9.00775
lfemur -20.8033 3.21409 -19.7995
ltibia 32.4308
lfoot -21.4048 -1.56002
ltoes 17.5111
12
root -15.5172 17.2617 -18.4032 9.56684 1.22123 -2.29594
lowerback -6.27553 0.369615 -0.445943
upperback -0.803407 0.483762 1.36769
thorax 2.67452 0.23091 1.70053
lowerneck -4.51309 -2.40924 -0.35556
upperneck -13.4752 -2.97246 2.56351
head -3.52371 -1.54335 0.949319
rclavicle 7.97623e-015 -2.38542e-015
rhumerus -39.5409 13.2929 -98.0852
rradius 37.5126
rwrist 16.958
rhand -10.4371 -12.6293
rfingers 7.12502
rthumb 15.5627 -42.0231
lclavicle 7.97623e-015 -2.38542e-015
lhumerus -46.2988 -29.6359 111.692
lradius 50.9716
lwrist 4.74521
lhand 26.2533 12.9076
lfingers 7.12502
lthumb 50.3092 33.9665
rfemur -18.5989 6.04086 20.7645
rtibia 29.9688
rfoot -16.6631 -15.5662
rtoes 8.97513
lfemur -20.8375 3.21893 -19.7935
ltibia 32.4292
lfoot -21.3993 -1.475
ltoes 17.5377
13
root -15.5168 17.2621 -18.4067 9.60782 1.11228 -2.30895
lowerback -6.2707 0.419271 -0.390893
upperback -0.841754 0.548192 1.30937
thorax 2.63126 0.264243 1.61445
lowerneck -4.49333 -2.42 -0.254622
upperneck -13.4461 -2.9899 2.54869
head -3.51848 -1.55621 0.927223
rclavicle -1.05915e-014 -1.04362e-014
rhumerus -39.5025 13.0227 -98.1075
rradius 37.4038
rwrist 17.0988
rhand -10.4534 -12.709
rfingers 7.12502
rthumb 15.547 -42.104
lclavicle -1.05915e-014 -1.04362e-014
lhumerus -46.3635 -29.5377 111.527
lradius 50.9765
lwrist 4.96053
lhand 26.0125 12.7984
lfingers 7.12502
lthumb 50.089 33.9742
rfemur -18.6578 6.15452 20.7571
rtibia 29.9529
rfoot -16.6375 -15.583
rtoes 8.97891
lfemur -20.884 3.22366 -19.7892
ltibia 32.4292
lfoot -21.3952 -1.37918
ltoes 17.5613
14
root -15.5161 17.2628 -18.4107 9.67144 0.960169 -2.325
lowerback -6.29371 0.48594 -0.334378
upperback -0.879806 0.635122 1.24927
thorax 2.60351 0.308665 1.52793
lowerneck -4.47301 -2.4317 -0.146243
upperneck -13.4248 -3.00937 2.52538
head -3.51642 -1.57016 0.901274
rclavicle -2.91654e-015 -1.03865e-014
rhumerus -39.4594 12.762 -98.1301
rradius 37.3072
rwrist 17.2177
rhand -10.4532 -12.8015
rfingers 7.12502
rthumb 15.5472 -42.1966
lclavicle -2.91654e-015 -1.03865e-014
lhumerus -46.4082 -29.432 111.345
lradius 50.9791
lwrist 5.1558
lhand 25.8174 12.6991
lfingers 7.12502
lthumb 49.9105 33.9687
rfemur -18.7496 6.25224 20.7449
rtibia 29.9334
rfoot -16.594 -15.5527
rtoes 8.92681
lfemur -20.952 3.22422 -19.7882
ltibia 32.4288
lfoot -21.3843 -1.23456
ltoes 17.5535
